<svg width="45" height="45" viewBox="0 0 45 45" fill="none" xmlns="http://www.w3.org/2000/svg">
<path fill-rule="evenodd" clip-rule="evenodd" d="M35.1582 7.73438C36.3226 7.73438 37.2676 8.67937 37.2676 9.84375C37.2676 10.2319 37.5826 10.5469 37.9707 10.5469C38.3588 10.5469 38.6738 10.2319 38.6738 9.84375C38.6738 7.90313 37.0988 6.32812 35.1582 6.32812C34.7701 6.32812 34.4551 6.64312 34.4551 7.03125C34.4551 7.41937 34.7701 7.73438 35.1582 7.73438Z" fill="black"/>
<path fill-rule="evenodd" clip-rule="evenodd" d="M27.3004 35.8592H26.721C25.5559 35.8592 24.6116 36.8035 24.6116 37.9686V40.7811C24.6116 41.9461 25.5559 42.8904 26.721 42.8904H29.5335C30.0735 42.8904 30.5664 42.6872 30.9398 42.3533C31.3131 42.6872 31.806 42.8904 32.346 42.8904H40.7835C41.9486 42.8904 42.8929 41.9461 42.8929 40.7811V32.3436C42.8929 31.1785 41.9486 30.2342 40.7835 30.2342H32.346C31.1809 30.2342 30.2366 31.1785 30.2366 32.3436V35.9794C30.0166 35.9014 29.7803 35.8592 29.5335 35.8592H28.8972L24.3002 27.3211L33.0491 18.5722V28.1248C33.0491 28.5129 33.3641 28.8279 33.7523 28.8279C34.1404 28.8279 34.4554 28.5129 34.4554 28.1248V27.5925L37.353 24.6943C38.1763 23.8716 38.1763 22.5343 37.353 21.7116C36.5577 20.9157 35.283 20.889 34.4554 21.6308V17.1659L40.0762 11.5451C40.96 10.6613 41.5619 9.5363 41.8073 8.31146C42.0041 7.32497 42.2559 6.06778 42.4654 5.01872C42.6039 4.32685 42.3873 3.61177 41.8888 3.11325C41.3903 2.61474 40.6752 2.39818 39.9834 2.53669C38.9343 2.74622 37.6771 2.99794 36.6906 3.19481C35.4658 3.4402 34.3408 4.04208 33.4569 4.92591L27.8362 10.5467H23.0198C23.7616 9.71911 23.7348 8.44434 22.9389 7.64911C22.1162 6.82575 20.7789 6.82575 19.9562 7.64911L17.058 10.5467H14.9338C15.6756 9.71911 15.6489 8.44434 14.853 7.64911C14.0303 6.82575 12.693 6.82575 11.8703 7.64911L8.97202 10.5467H4.22101C3.25492 10.5467 2.41187 11.2034 2.17562 12.1407C1.93937 13.0772 2.37039 14.0553 3.22117 14.513L16.6424 21.7404L10.9612 27.4217H4.22101C3.2732 27.4217 2.44141 28.0545 2.18828 28.9679C1.93516 29.8819 2.32257 30.8522 3.13538 31.3395L6.11452 33.1268C5.30241 34.4663 4.64007 35.8958 4.14155 37.3906L3.89827 38.1211L3.3618 38.6576C2.84782 39.1716 2.50539 39.8326 2.38235 40.549C2.26492 41.2339 2.12148 42.0685 2.12148 42.0685C2.08281 42.2935 2.15593 42.5234 2.31765 42.6844C2.47867 42.8461 2.70859 42.9193 2.93359 42.8806L4.45303 42.6197C5.16952 42.4967 5.83046 42.1543 6.34444 41.6403L6.88093 41.1045L7.61218 40.8605C9.10702 40.362 10.5365 39.6997 11.8752 38.8883L13.6626 41.8667C14.1498 42.6795 15.1201 43.0669 16.0342 42.8138C16.9476 42.5607 17.5804 41.7289 17.5804 40.7811V34.0409L23.2616 28.3597L27.3004 35.8592ZM38.6741 31.6404V32.9061C38.6741 33.3167 38.511 33.7097 38.2213 34.0001C37.9309 34.2898 37.5372 34.4529 37.1273 34.4529H36.0023C35.5924 34.4529 35.1986 34.2898 34.9082 34.0001C34.6185 33.7097 34.4554 33.3167 34.4554 32.9061V31.6404H32.346C31.9579 31.6404 31.6429 31.9554 31.6429 32.3436V40.7811C31.6429 41.1692 31.9579 41.4842 32.346 41.4842H40.7835C41.1716 41.4842 41.4866 41.1692 41.4866 40.7811V32.3436C41.4866 31.9554 41.1716 31.6404 40.7835 31.6404H38.6741ZM26.721 37.2654H29.5335C29.9216 37.2654 30.2366 37.5804 30.2366 37.9686V40.7811C30.2366 41.1692 29.9216 41.4842 29.5335 41.4842H26.721C26.3329 41.4842 26.0179 41.1692 26.0179 40.7811V37.9686C26.0179 37.5804 26.3329 37.2654 26.721 37.2654ZM16.1741 35.4472L15.8556 35.7657C14.9894 36.6319 14.0514 37.4187 13.0537 38.119L14.8684 41.1432C15.0309 41.4139 15.3543 41.5433 15.6587 41.4589C15.9632 41.3745 16.1741 41.0968 16.1741 40.7811V35.4472ZM4.21539 41.2339L3.67609 41.326L3.76819 40.7867C3.84202 40.3564 4.04733 39.9605 4.356 39.6518L9.3489 34.659C9.62312 34.3847 10.0689 34.3847 10.3431 34.659C10.6173 34.9332 10.6173 35.379 10.3431 35.6532L5.35022 40.6461C5.04155 40.9547 4.6457 41.16 4.21539 41.2339ZM9.32077 38.6647C11.3732 37.6993 13.2491 36.383 14.8614 34.7708L39.0819 10.5509C39.7689 9.86325 40.2372 8.98857 40.4277 8.03583L41.0866 4.7431C41.133 4.51247 41.0605 4.27411 40.8946 4.10747C40.728 3.94154 40.4896 3.86911 40.259 3.91552L36.9663 4.57434C36.0135 4.76489 35.1388 5.23317 34.4512 5.92013L22.5873 17.784C22.3131 18.0582 21.8673 18.0582 21.5931 17.784C21.3189 17.5097 21.3189 17.064 21.5931 16.7897L26.4299 11.9529H4.22101C3.89898 11.9529 3.61773 12.1716 3.53898 12.4845C3.46023 12.7967 3.60437 13.1222 3.88773 13.2748L17.6809 20.7019L19.6047 18.7782C19.8789 18.504 20.3247 18.504 20.5989 18.7782C20.8731 19.0524 20.8731 19.4982 20.5989 19.7724L10.2313 30.14C8.61906 31.7522 7.3035 33.6282 6.33811 35.6813L8.35468 33.6647C9.17734 32.8414 10.5147 32.8414 11.3373 33.6647C12.1607 34.4874 12.1607 35.8247 11.3373 36.6474L9.32077 38.6647ZM37.2679 31.6404V32.9061C37.2679 32.9433 37.2531 32.9792 37.2264 33.0059C37.2004 33.0319 37.1645 33.0467 37.1273 33.0467H36.0023C35.965 33.0467 35.9291 33.0319 35.9031 33.0059C35.8764 32.9792 35.8616 32.9433 35.8616 32.9061V31.6404H37.2679ZM9.55492 28.8279H4.22101C3.90531 28.8279 3.62758 29.0389 3.54321 29.3433C3.45883 29.6478 3.58819 29.9712 3.85889 30.1336L6.88374 31.9484C7.58264 30.9514 8.37015 30.0127 9.23711 29.1458L9.55492 28.8279ZM34.4554 25.6034V23.615L35.3645 22.7058C35.6387 22.4316 36.0845 22.4316 36.3587 22.7058C36.633 22.98 36.633 23.4258 36.3587 23.7001L34.4554 25.6034ZM12.9496 10.5467H10.9612L12.8645 8.64333C13.1387 8.36911 13.5845 8.36911 13.8587 8.64333C14.133 8.91755 14.133 9.36333 13.8587 9.63755L12.9496 10.5467ZM21.0355 10.5467H19.0471L20.9505 8.64333C21.2247 8.36911 21.6705 8.36911 21.9447 8.64333C22.2189 8.91755 22.2189 9.36333 21.9447 9.63755L21.0355 10.5467Z" fill="black"/>
</svg>
