<svg width="51" height="50" viewBox="0 0 51 50" fill="none" xmlns="http://www.w3.org/2000/svg">
<path d="M48.5831 37.312C48.6248 38.8745 48.2081 40.3537 47.4581 41.6245C47.0414 42.3745 46.479 43.0621 45.854 43.6246C44.4165 44.9579 42.5206 45.7704 40.4164 45.8329C37.3748 45.8954 34.6873 44.3329 33.2081 41.9371C32.4164 40.7079 31.9373 39.2288 31.9165 37.6663C31.854 35.0413 33.0206 32.6662 34.8956 31.1037C36.3123 29.9371 38.104 29.2079 40.0623 29.1662C44.6665 29.0621 48.479 32.7079 48.5831 37.312Z" stroke="black" stroke-width="1.5" stroke-miterlimit="10" stroke-linecap="round" stroke-linejoin="round"/>
<path d="M37 37.562L39.1042 39.5619L43.4583 35.3535" stroke="black" stroke-width="1.5" stroke-linecap="round" stroke-linejoin="round"/>
<path d="M7.26953 15.5L25.6653 26.1458L43.9361 15.5624" stroke="black" stroke-width="1.5" stroke-linecap="round" stroke-linejoin="round"/>
<path d="M25.666 45.0208V26.125" stroke="black" stroke-width="1.5" stroke-linecap="round" stroke-linejoin="round"/>
<path d="M45.6861 19.1045V30.8962C45.6861 31.0004 45.6862 31.0836 45.6653 31.1878C44.207 29.917 42.332 29.167 40.2487 29.167C38.2903 29.167 36.4778 29.8545 35.0403 31.0004C33.1237 32.5212 31.9153 34.8754 31.9153 37.5004C31.9153 39.0629 32.3528 40.542 33.1236 41.792C33.3111 42.1254 33.5403 42.4379 33.7903 42.7296L29.9778 44.8337C27.6028 46.1671 23.7278 46.1671 21.3528 44.8337L10.2278 38.667C7.70699 37.2712 5.64453 33.7712 5.64453 30.8962V19.1045C5.64453 16.2295 7.70699 12.7295 10.2278 11.3337L21.3528 5.16699C23.7278 3.83366 27.6028 3.83366 29.9778 5.16699L41.1028 11.3337C43.6237 12.7295 45.6861 16.2295 45.6861 19.1045Z" stroke="black" stroke-width="1.5" stroke-linecap="round" stroke-linejoin="round"/>
</svg>
