<svg width="65" height="46" viewBox="0 0 65 46" fill="none" xmlns="http://www.w3.org/2000/svg">
<path d="M14.6933 0.411621C6.86718 0.411621 0.500977 6.77782 0.500977 14.604C0.500977 22.1538 6.42578 28.3461 13.8701 28.7739C13.999 30.1655 13.9023 33.9536 10.2724 39.2231C9.99798 39.6206 10.0478 40.1567 10.3886 40.4975C11.874 41.9829 12.792 42.9184 13.4345 43.5727C14.2754 44.4282 14.6592 44.8188 15.2207 45.3286C15.4111 45.5014 15.6513 45.5883 15.8926 45.5883C16.1269 45.5883 16.3603 45.5063 16.5488 45.3432C22.874 39.8393 29.9004 28.4672 28.8838 14.5317C28.2881 6.35012 22.3203 0.411621 14.6933 0.411621ZM15.9023 43.2221C15.6299 42.9536 15.3193 42.6372 14.8613 42.1713C14.3047 41.604 13.541 40.8266 12.3828 39.6645C16.7881 32.8764 15.956 28.0415 15.5918 27.3481C15.4189 27.019 15.0644 26.7973 14.6933 26.7973C7.97068 26.7973 2.50098 21.3276 2.50098 14.604C2.50098 7.88132 7.97068 2.41162 14.6933 2.41162C21.2422 2.41162 26.3711 7.56982 26.8896 14.6762C28.0322 30.3501 18.7168 40.5268 15.9023 43.2221Z" fill="black"/>
<path d="M64.4004 14.5317C63.8027 6.35112 57.834 0.411621 50.209 0.411621C42.3828 0.411621 36.0156 6.77782 36.0156 14.604C36.0156 22.1538 41.9414 28.3461 49.3867 28.7739C49.5156 30.1645 49.4179 33.9506 45.7871 39.2231C45.5127 39.6206 45.5625 40.1567 45.9033 40.4975C47.3828 41.977 48.2988 42.9106 48.9414 43.5639C49.7861 44.4252 50.1719 44.8178 50.7363 45.3295C50.9267 45.5014 51.1679 45.5883 51.4082 45.5883C51.6426 45.5883 51.876 45.5063 52.0644 45.3422C58.3896 39.8383 65.416 28.4663 64.4004 14.5317ZM51.4179 43.2221C51.1435 42.9516 50.8301 42.6333 50.3681 42.1626C49.8115 41.5961 49.0508 40.8208 47.8974 39.6645C52.3027 32.8754 51.4717 28.0415 51.1084 27.3481C50.9355 27.02 50.5801 26.7973 50.209 26.7973C43.4853 26.7973 38.0156 21.3276 38.0156 14.604C38.0156 7.88132 43.4853 2.41162 50.209 2.41162C56.7568 2.41162 61.8867 7.56982 62.4062 14.6772C63.5478 30.3491 54.2324 40.5268 51.4179 43.2221Z" fill="black"/>
</svg>
