<svg width="147" height="135" viewBox="0 0 147 135" fill="none" xmlns="http://www.w3.org/2000/svg">
<path d="M65.2603 47.7485C66.5603 46.8189 67.8603 45.9738 69.0603 45.0441C69.7603 45.2132 70.4603 45.3822 71.2603 45.4667C77.8603 46.5653 85.5603 45.7202 89.6603 44.5371C95.8603 42.7624 102.16 40.058 108.86 36.3396C114.06 33.4662 119.06 30.2548 123.86 27.0434C130.86 22.5643 138.06 17.9162 145.76 14.2823L146.66 13.8597L145.76 13.5217C131.36 7.69046 113.66 7.60594 98.5603 13.3527C87.1603 17.6627 66.8603 34.8184 66.9603 43.7765C65.8603 44.5371 64.7603 45.2132 63.7603 45.9738C57.8603 50.0303 52.0603 54.2558 46.4603 58.5658C46.3603 58.5658 46.2603 58.5658 46.0603 58.6504V58.8194C40.0603 63.4674 34.3603 68.2846 28.6603 73.2707C28.9603 70.5663 29.4603 67.7775 30.0603 65.0732C37.1603 62.8759 44.4603 56.7066 47.2603 52.9881C50.8603 48.34 53.8603 43.0159 56.4603 36.6776C58.4603 31.776 60.0603 26.7899 61.6603 21.8882C63.9603 14.8739 66.2603 7.60595 69.7603 0.845106L70.1603 0L69.1603 0.253522C66.2603 0.929606 63.3603 1.85923 60.6603 2.95787C60.6603 2.95787 60.5603 2.95785 60.5603 3.04236C55.7603 4.9861 51.1603 7.43692 47.0603 10.3948C41.0603 14.7048 35.9603 19.9445 32.2603 25.8602C26.6603 34.7338 23.0603 56.1995 28.2603 63.721C27.2603 67.6085 26.4603 71.5805 26.0603 75.637C16.7603 84.0881 7.9603 92.9617 -0.139702 102.258C-0.7397 99.5535 -1.2397 96.8492 -1.6397 94.1448C4.1603 90.0038 8.6603 82.4823 10.0603 78.3413C11.8603 73.0172 12.7603 67.1859 12.9603 60.5941C13.0603 55.5235 12.7603 50.3683 12.5603 45.3822C12.5603 44.6216 12.4603 43.9455 12.4603 43.1849C12.4603 43.1849 12.4603 43.1849 12.4603 43.1004C12.1603 36.6776 11.8603 30.0858 12.5603 23.5785L12.6603 22.7333L11.7603 23.2404C-1.6397 30.9309 -11.4397 43.7765 -14.4397 57.4672C-16.5397 67.524 -11.9397 89.2432 -3.8397 94.1448C-3.4397 97.6097 -2.8397 101.075 -2.0397 104.455H-1.9397C-12.1397 116.287 -21.3397 128.71 -29.4397 141.64C-30.6397 139.358 -31.7397 137.076 -32.7397 134.71C-27.8397 129.217 -25.2397 120.766 -25.0397 116.287C-24.6397 110.54 -25.3397 104.455 -26.9397 97.7788C-28.2397 92.6236 -29.9397 87.4685 -31.5397 82.4823C-33.9397 75.3834 -36.3397 67.9465 -37.4397 60.4251L-37.5397 59.4955L-38.2397 60.1715C-40.8397 62.4533 -43.1397 65.0731 -45.1397 67.693H-45.2397V67.7775C-52.6397 77.4117 -56.5397 88.9896 -55.9397 100.23C-55.8397 101.582 -55.6397 103.187 -55.2397 104.878L-55.6397 105.131C-55.4397 105.385 -55.2397 105.638 -55.0397 105.892C-52.1397 116.963 -43.2397 132.344 -34.9397 135.048C-33.7397 138.09 -32.4397 141.048 -30.8397 143.922C-32.2397 146.203 -33.6397 148.485 -34.9397 150.851C-33.8397 151.358 -32.6397 151.781 -31.5397 152.288C-28.6397 147.217 -25.6397 142.231 -22.4397 137.33C-20.3397 134.118 -18.1397 130.991 -15.9397 127.865C-12.0397 126.935 -8.0397 126.259 -4.0397 125.667C1.1603 131.498 10.7603 135.724 16.2603 136.907C17.6603 137.245 19.0603 137.499 20.5603 137.752C26.3603 138.682 32.7603 139.104 39.8603 138.935C46.6603 138.766 53.5603 138.259 60.2603 137.668C61.5603 137.583 62.7603 137.499 64.0603 137.33C64.2603 137.33 64.4603 137.414 64.6603 137.414V137.245C68.1603 136.992 71.5603 136.738 75.0603 136.569C79.8603 136.316 84.6603 136.231 89.4603 136.485L90.6603 136.569L90.0603 135.724C80.6603 122.202 64.2603 112.737 46.1603 110.371C32.8603 108.681 3.3603 114.596 -3.7397 123.301C-7.0397 123.724 -10.4397 124.231 -13.7397 124.907C-12.6397 123.385 -11.5397 121.949 -10.4397 120.512C-6.3397 115.019 -2.0397 109.61 2.5603 104.286C5.6603 100.652 8.8603 97.1027 12.1603 93.6377C15.6603 92.8771 19.1603 92.2011 22.7603 91.694C27.5603 97.1027 36.6603 101.075 41.7603 102.173C43.0603 102.427 44.4603 102.68 45.7603 102.934C51.2603 103.864 57.1603 104.202 63.7603 104.117C70.1603 104.033 76.5603 103.441 82.8603 102.934C91.8603 102.173 101.16 101.413 110.26 101.92L111.36 102.004L110.76 101.244C101.96 88.5671 86.5603 79.6935 69.6603 77.4962C57.2603 75.8905 29.5603 81.4682 22.8603 89.5812C20.1603 89.9193 17.4603 90.3418 14.8603 90.7644C25.2603 79.947 36.4603 69.8058 48.4603 60.3406C51.8603 59.749 55.2603 59.3264 58.6603 59.0729C62.7603 64.2281 70.4603 68.2846 74.9603 69.6367C76.1603 69.9748 77.3603 70.3128 78.5603 70.5664C83.4603 71.7495 88.8603 72.4256 94.9603 72.6791C100.76 72.9327 106.76 72.8481 112.46 72.7636C120.76 72.6791 129.26 72.5101 137.56 73.4397L138.56 73.5242L138.16 72.7636C131.16 60.5941 117.76 51.4669 102.46 48.4246C91.0603 46.1428 64.6603 49.7767 58.4603 57.1292C56.2603 57.2982 54.0603 57.4672 51.7603 57.8052C55.8603 54.4248 60.5603 51.0444 65.2603 47.7485ZM89.3603 43.692C85.0603 44.9596 76.7603 45.8047 70.0603 44.3681C73.2603 42.1708 76.5603 39.9735 79.8603 37.9453C81.0603 38.1988 82.2603 38.5368 83.4603 38.7058C90.2603 39.8045 97.4603 39.4664 104.36 37.6917C99.2603 40.3115 94.2603 42.2553 89.3603 43.692ZM108.36 35.5789C107.56 36.0015 106.76 36.5086 105.96 36.9311L105.86 36.6776C97.6603 39.1284 88.8603 39.3819 80.7603 37.5227C81.6603 37.0156 82.4603 36.4241 83.3603 35.917C87.2603 33.5507 91.2603 31.4379 95.4603 29.3252C96.6603 29.5787 97.8603 29.8322 99.0603 30.0858C105.66 31.1844 112.56 30.8464 119.16 29.1562C115.56 31.3534 111.96 33.5507 108.36 35.5789ZM123.36 26.3673C122.46 26.9589 121.56 27.5504 120.56 28.142V28.0575C112.66 30.4238 104.16 30.6773 96.3603 28.9026C98.4603 27.8885 100.56 26.8744 102.76 25.9447C106.76 24.17 110.96 22.5643 115.16 21.1277C116.46 21.5502 117.76 21.8037 119.06 22.0572C122.76 22.6488 126.56 22.6488 130.36 21.9728C127.96 23.4094 125.66 24.8461 123.36 26.3673ZM131.96 20.8741C126.76 22.0573 121.26 21.9728 116.26 20.7051C118.66 19.9445 121.06 19.1839 123.46 18.5923C127.06 17.6627 130.56 16.7331 134.26 16.057C137.36 15.4654 140.46 14.9584 143.56 14.5358C139.56 16.395 135.66 18.5923 131.96 20.8741ZM143.76 14.2823C136.86 14.8739 129.96 15.9725 123.16 17.5782C120.16 18.3388 117.16 19.0994 114.16 20.029C114.06 20.029 114.06 20.029 113.96 19.9445L113.86 20.029C110.76 20.9586 107.66 22.0573 104.66 23.2404C109.56 16.9866 116.76 12.254 124.96 9.97224C131.66 10.2258 138.26 11.578 144.36 13.9443C144.16 14.0288 143.96 14.1978 143.76 14.2823ZM122.96 9.97224C115.06 12.5921 108.16 17.4937 103.56 23.832C103.06 24.001 102.56 24.2545 102.06 24.4236C97.5603 26.2828 93.0603 28.3955 88.7603 30.5928C92.4603 23.5784 98.0603 17.2402 104.96 12.254C110.76 10.6483 116.86 9.88773 122.96 9.97224ZM98.8603 14.1978C100.16 13.6907 101.56 13.2681 102.96 12.8456C96.3603 17.9162 91.0603 24.2545 87.5603 31.2689C85.7603 32.2831 83.8603 33.2126 82.1603 34.3113C79.6603 35.748 77.2603 37.2692 74.7603 38.7904C78.6603 31.5225 83.9603 24.7616 90.2603 18.9304L90.1603 18.8459C93.2603 16.8176 96.2603 15.2119 98.8603 14.1978ZM87.2603 20.7896C81.6603 26.3673 76.9603 32.7056 73.5603 39.4664C71.6603 40.6496 69.8603 41.8327 68.0603 43.1004C68.6603 37.3537 77.7603 27.6349 87.2603 20.7896ZM-26.0397 116.287C-26.3397 120.512 -28.6397 128.456 -33.1397 133.696C-34.0397 131.583 -34.8397 129.386 -35.5397 127.188C-30.5397 122.54 -27.1397 116.54 -25.9397 110.286C-25.8397 112.315 -25.8397 114.343 -26.0397 116.287ZM-26.1397 107.92H-26.3397C-27.0397 114.681 -30.4397 121.357 -35.7397 126.428C-35.9397 125.752 -36.2397 125.076 -36.4397 124.4C-37.2397 121.78 -37.9397 119.16 -38.5397 116.456C-32.6397 112.23 -28.5397 106.061 -27.4397 99.5535C-26.8397 102.511 -26.4397 105.3 -26.1397 107.92ZM-55.0397 100.23C-55.1397 97.8633 -55.0397 95.5815 -54.8397 93.2152C-51.6397 100.314 -47.0397 106.99 -41.3397 112.568C-41.0397 114.512 -40.6397 116.456 -40.2397 118.399C-45.5397 114.934 -50.2397 110.793 -54.1397 106.145C-54.5397 104.033 -54.9397 102.004 -55.0397 100.23ZM-44.5397 68.4536C-42.7397 66.0873 -40.7397 63.8055 -38.5397 61.7772C-40.6397 68.4536 -41.8397 75.2989 -42.4397 82.1443C-42.4397 82.3133 -42.4397 82.3978 -42.4397 82.5668C-44.0397 78.0033 -44.6397 73.2707 -44.5397 68.4536ZM-40.5397 105.892C-35.3397 101.328 -31.6397 95.4125 -30.3397 89.1587C-29.4397 91.9475 -28.6397 94.7364 -27.9397 97.5252C-28.5397 104.455 -32.4397 111.216 -38.7397 115.78C-39.4397 112.568 -40.0397 109.272 -40.5397 105.892ZM-42.4397 103.779C-42.2397 106.314 -41.8397 108.765 -41.4397 111.3C-47.1397 105.638 -51.5397 98.9619 -54.5397 91.7785C-53.9397 87.8065 -52.8397 83.8345 -51.2397 79.947C-50.0397 86.5388 -47.1397 92.7081 -42.7397 98.0323C-42.7397 100.061 -42.5397 101.92 -42.4397 103.779ZM-30.8397 87.8065C-31.9397 94.1448 -35.4397 100.399 -40.7397 105.047C-40.8397 104.54 -40.8397 104.033 -40.9397 103.525C-41.4397 99.5535 -41.6397 95.5815 -41.7397 91.6095C-37.5397 88.3981 -34.6397 83.919 -33.7397 79.1019C-33.3397 80.2851 -32.9397 81.4682 -32.5397 82.6514C-31.9397 84.4261 -31.3397 86.1163 -30.8397 87.8065ZM-34.1397 77.6652C-34.6397 82.6514 -37.4397 87.4685 -41.6397 90.8489C-41.6397 87.9755 -41.6397 85.1022 -41.4397 82.2288C-41.0397 75.637 -39.9397 68.9606 -38.1397 62.4533C-37.2397 67.524 -35.7397 72.6791 -34.1397 77.6652ZM-42.6397 84.5106C-42.9397 88.6516 -42.9397 92.7926 -42.8397 96.8491C-47.0397 91.525 -49.7397 85.2712 -50.7397 78.7639C-49.2397 75.5525 -47.5397 72.4256 -45.3397 69.5522C-45.3397 74.6229 -44.4397 79.6935 -42.6397 84.5106ZM-53.4397 107.92C-49.5397 112.315 -45.0397 116.202 -39.8397 119.413C-39.4397 121.273 -38.9397 123.216 -38.4397 125.076C-37.5397 128.118 -36.6397 131.076 -35.4397 133.949C-42.2397 130.907 -50.2397 118.399 -53.4397 107.92ZM16.4603 135.978C11.2603 134.879 2.2603 130.907 -2.8397 125.583C-0.639702 125.245 1.5603 124.991 3.7603 124.822C8.5603 130.315 15.0603 134.625 22.4603 137.076C20.3603 136.823 18.3603 136.4 16.4603 135.978ZM26.5603 137.583C17.8603 135.47 10.1603 130.907 4.6603 124.738C6.3603 124.569 7.9603 124.4 9.6603 124.315C12.3603 124.146 15.0603 124.062 17.7603 123.977C24.5603 130.907 33.6603 135.809 43.9603 137.921C42.5603 138.006 41.1603 138.006 39.7603 138.09C35.0603 138.09 30.6603 137.921 26.5603 137.583ZM60.0603 136.823C55.7603 137.161 51.3603 137.499 46.8603 137.752C46.6603 137.752 46.5603 137.668 46.3603 137.668C35.5603 135.893 25.8603 131.076 18.7603 123.977C20.2603 123.977 21.6603 123.977 23.0603 123.977L23.1603 124.062C23.1603 124.062 23.2603 124.062 23.2603 123.977C26.9603 123.977 30.6603 124.146 34.3603 124.315C41.7603 130.231 50.6603 134.456 60.3603 136.823C60.2603 136.823 60.1603 136.823 60.0603 136.823ZM37.1603 122.963C33.3603 122.625 29.5603 122.371 25.7603 122.287C35.2603 116.287 48.9603 113.751 60.1603 115.188C64.0603 116.625 67.7603 118.399 71.2603 120.428C62.0603 118.484 51.8603 119.667 43.1603 123.639C41.1603 123.301 39.1603 123.132 37.1603 122.963ZM62.6603 136.569C52.5603 134.456 43.3603 130.315 35.6603 124.315C36.0603 124.315 36.5603 124.4 36.9603 124.4C43.4603 124.907 49.9603 125.667 56.3603 126.85C60.6603 130.822 66.0603 133.949 71.9603 135.893C68.8603 136.147 65.6603 136.316 62.6603 136.569ZM73.9603 135.809C67.8603 134.034 62.2603 131.076 57.6603 127.104C59.6603 127.442 61.6603 127.865 63.6603 128.287C71.7603 130.062 79.6603 132.428 87.0603 135.555C82.7603 135.47 78.3603 135.555 73.9603 135.809ZM87.9603 135.301C80.3603 131.921 72.2603 129.301 63.9603 127.273C57.5603 125.752 51.0603 124.569 44.4603 123.724C53.3603 119.921 63.8603 119.075 73.0603 121.526C78.9603 125.245 84.0603 129.977 87.9603 135.301ZM57.7603 114.343C46.3603 112.737 33.9603 115.695 24.5603 122.202C19.8603 122.033 15.0603 122.118 10.3603 122.287C19.0603 116.709 31.3603 112.653 41.8603 111.3C43.2603 111.3 44.5603 111.385 45.7603 111.554C49.8603 112.146 53.8603 113.075 57.7603 114.343ZM37.0603 111.385C26.9603 112.906 17.1603 116.709 8.9603 122.287C5.1603 122.456 1.4603 122.794 -2.3397 123.216C3.8603 117.301 22.8603 112.146 37.0603 111.385ZM9.1603 78.1723C7.8603 82.0598 3.7603 89.0742 -1.6397 93.1307C-2.0397 90.0883 -2.2397 86.9614 -2.4397 83.8345C-2.4397 83.8345 -2.4397 83.8345 -2.4397 83.75C3.6603 80.4541 8.5603 75.2989 11.1603 69.4677C10.6603 72.5101 10.0603 75.3835 9.1603 78.1723ZM3.4603 43.1849C5.4603 37.0156 8.0603 31.0154 11.3603 25.2687C10.8603 31.4379 11.0603 37.6072 11.3603 43.692C9.4603 48.9316 5.2603 53.5797 -0.139702 56.5376C0.860298 52.0585 1.9603 47.5795 3.4603 43.1849ZM-1.6397 57.2982C-2.1397 59.3264 -2.4397 61.3547 -2.8397 63.383C-2.8397 63.4675 -2.8397 63.552 -2.8397 63.6365C-5.8397 56.115 -6.7397 47.9175 -5.3397 39.8045C-3.8397 37.6917 -2.1397 35.6635 -0.339703 33.8042C-2.1397 40.227 -2.0397 46.1428 -0.439701 52.4811C-0.839703 54.0868 -1.2397 55.6925 -1.6397 57.2982ZM11.9603 60.5941C11.8603 62.6223 11.7603 64.5661 11.5603 66.4253C9.4603 73.1017 4.2603 79.2709 -2.5397 82.9894C-2.6397 79.0174 -2.5397 75.0454 -2.2397 71.0734C4.2603 67.1859 9.3603 61.3547 11.8603 54.8474C11.9603 56.8756 11.9603 58.7349 11.9603 60.5941ZM-3.0397 65.0732C-3.3397 67.1859 -3.6397 69.2142 -3.8397 71.327C-3.9397 71.327 -4.0397 71.4115 -4.0397 71.4115L-3.8397 71.665C-4.0397 73.7777 -4.2397 75.975 -4.2397 78.1723C-9.0397 71.2424 -11.9397 63.2139 -12.6397 54.9319C-11.2397 50.1148 -9.1397 45.4667 -6.2397 41.2412C-7.4397 49.3542 -6.3397 57.5517 -3.0397 65.0732ZM11.5603 45.4667C11.6603 47.9175 11.8603 50.3683 11.9603 52.8191C9.8603 59.749 4.7603 66.1718 -2.0397 70.3128C-1.8397 68.031 -1.5397 65.7492 -1.2397 63.4674C-0.939701 61.4392 -0.639702 59.4109 -0.2397 57.3827C5.0603 54.6784 9.2603 50.3683 11.5603 45.4667ZM11.1603 24.5926C7.5603 30.5083 4.7603 36.6776 2.4603 43.0159C1.5603 45.6357 0.660301 48.2555 -0.0396996 50.8754C-1.2397 44.9596 -1.0397 38.7058 0.660297 32.7056C3.8603 29.6632 7.3603 26.9589 11.1603 24.5926ZM-13.4397 57.5517C-13.4397 57.3827 -13.3397 57.2137 -13.3397 57.0447C-12.3397 65.0732 -9.2397 72.7636 -4.4397 79.44C-4.4397 80.9612 -4.5397 82.4823 -4.4397 84.0035C-4.4397 86.9614 -4.2397 90.0038 -3.9397 92.9617C-10.7397 87.6375 -15.6397 67.862 -13.4397 57.5517ZM41.7603 101.413C36.9603 100.314 28.4603 96.6801 23.7603 91.6095C27.6603 91.1024 31.5603 90.6799 35.4603 90.4263C35.7603 90.4263 36.0603 90.4263 36.2603 90.3418C41.9603 95.666 48.8603 100.061 56.4603 103.103C51.1603 103.018 46.2603 102.427 41.7603 101.413ZM58.4603 103.272C50.4603 100.314 43.1603 95.835 37.1603 90.3418C42.0603 90.0883 46.9603 90.0038 51.8603 90.1728C57.8603 95.9195 65.3603 100.23 73.7603 102.849C70.3603 103.103 66.8603 103.272 63.4603 103.356C61.7603 103.356 60.1603 103.356 58.4603 103.272ZM76.0603 79.8625C79.5603 80.7076 83.0603 81.8908 86.3603 83.3274C76.1603 82.5668 66.3603 84.5106 56.9603 88.8206C52.7603 88.5671 48.4603 88.3981 44.1603 88.3981C53.4603 82.5668 64.9603 79.44 76.0603 79.8625ZM61.1603 89.1587C60.2603 89.0742 59.2603 88.9897 58.3603 88.9051C67.5603 84.8486 77.9603 83.1584 87.9603 84.0035C91.2603 85.6092 94.4603 87.4685 97.3603 89.4967C89.9603 88.1446 82.0603 88.5671 74.8603 90.8489C70.3603 90.1728 65.7603 89.5812 61.1603 89.1587ZM82.5603 102.173C80.3603 102.342 78.0603 102.511 75.7603 102.68C67.0603 100.23 59.2603 96.004 53.0603 90.1728C55.6603 90.2573 58.2603 90.4263 60.8603 90.5954C64.0603 90.8489 67.2603 91.1869 70.4603 91.525C75.3603 96.0885 81.4603 99.5535 88.2603 101.666C86.3603 101.835 84.4603 102.004 82.5603 102.173ZM90.2603 101.582C83.2603 99.7225 76.8603 96.3421 71.7603 91.7785C76.5603 92.4546 81.2603 93.2152 85.8603 94.3138C93.4603 96.004 100.76 98.2013 107.76 101.159C102.06 100.906 96.1603 101.159 90.2603 101.582ZM108.76 100.821C101.66 97.6943 94.0603 95.2434 86.2603 93.2997C82.9603 92.5391 79.5603 91.7785 76.2603 91.1869C83.4603 89.1587 91.2603 88.9052 98.3603 90.4263V90.3418C102.36 93.4687 105.86 96.9337 108.76 100.821ZM69.1603 78.5949C70.4603 78.7639 71.6603 78.9329 72.9603 79.1864C62.3603 79.44 51.6603 82.6514 42.9603 88.3981C40.4603 88.3981 37.9603 88.4826 35.4603 88.5671C33.8603 88.6516 32.3603 88.7361 30.7603 88.8206C38.1603 84.1725 47.8603 80.4541 56.2603 78.7639C60.9603 78.2568 65.5603 78.1723 69.1603 78.5949ZM50.0603 79.6935C42.6603 81.6372 35.5603 84.8486 29.2603 88.9897C27.5603 89.1587 25.8603 89.3277 24.0603 89.4967C28.3603 85.3557 39.2603 81.6372 50.0603 79.6935ZM46.5603 52.5656C43.8603 56.115 37.1603 61.8618 30.3603 64.1435C30.9603 61.4392 31.7603 58.8194 32.6603 56.1996C32.9603 55.2699 33.2603 54.3403 33.6603 53.4952C42.7603 49.6077 50.8603 43.1849 56.0603 35.4945C55.9603 35.8325 55.7603 36.1705 55.6603 36.5086C53.0603 42.6778 50.1603 48.002 46.5603 52.5656ZM38.7603 41.5792C47.6603 37.3537 55.2603 30.9309 60.3603 23.2404C59.2603 26.5363 58.1603 29.8322 56.9603 33.0436C51.8603 40.9876 43.0603 48.34 33.9603 52.4811C35.3603 48.8471 36.9603 45.1286 38.7603 41.5792ZM47.1603 11.4934C50.4603 9.04261 54.1603 6.92985 57.9603 5.15513C52.4603 9.97223 48.9603 16.5641 48.3603 23.1559C45.3603 27.2124 42.6603 31.4379 40.1603 35.748C39.9603 36.086 39.7603 36.424 39.5603 36.8466C38.1603 28.3955 40.8603 19.2684 47.1603 11.4934ZM64.8603 9.97224C59.6603 17.1556 54.0603 22.5643 47.5603 26.2828C49.4603 23.4094 51.5603 20.5361 53.7603 17.7472C58.0603 12.254 62.8603 7.01436 68.1603 2.28177C66.9603 4.73258 65.8603 7.35241 64.8603 9.97224ZM52.9603 17.2402C51.6603 18.7613 50.4603 20.3671 49.3603 21.8882C50.3603 15.1274 54.4603 8.53557 60.4603 4.14101C62.9603 3.12689 65.5603 2.19727 68.2603 1.52118C62.5603 6.33828 57.4603 11.6625 52.9603 17.2402ZM41.4603 36.255C43.0603 33.2972 44.8603 30.3393 46.7603 27.4659C53.1603 23.9165 58.8603 18.9304 63.9603 12.254C62.9603 14.9584 62.0603 17.6627 61.2603 20.367C56.3603 28.8181 48.5603 35.917 39.1603 40.4806C39.9603 39.1284 40.6603 37.6917 41.4603 36.255ZM45.0603 13.1836C39.5603 20.8741 37.3603 29.6632 39.0603 37.8607C37.3603 40.9031 35.8603 43.9455 34.4603 46.9879C31.6603 39.5509 31.8603 31.1844 35.1603 23.5785C37.8603 19.7755 41.1603 16.3105 45.0603 13.1836ZM33.1603 26.2828L33.2603 26.1983C30.5603 33.5507 30.8603 40.7341 33.8603 48.002C32.7603 50.5373 31.6603 53.1572 30.7603 55.6925C29.1603 50.7909 28.3603 45.8047 28.2603 40.6496H27.9603C29.1603 35.1564 30.9603 29.9167 33.1603 26.2828ZM27.6603 42.9314C27.9603 47.664 28.8603 52.3966 30.4603 56.8756C29.8603 58.7349 29.2603 60.5941 28.7603 62.4533C26.5603 58.3123 26.3603 50.5373 27.6603 42.9314ZM74.9603 68.8761C70.7603 67.6085 63.4603 63.89 59.4603 59.0729C62.8603 58.8194 66.1603 58.6504 69.5603 58.5658C70.0603 58.5658 70.4603 58.5658 70.9603 58.5658C75.6603 63.8055 81.6603 68.2001 88.2603 71.4115C83.3603 70.9044 78.9603 70.0593 74.9603 68.8761ZM94.7603 71.9185C93.1603 71.834 91.6603 71.7495 90.1603 71.5805C83.1603 68.3691 76.8603 63.89 71.8603 58.4813C76.3603 58.4813 80.7603 58.6504 85.1603 58.9884C90.1603 64.6506 96.6603 69.1297 104.16 72.003C101.06 72.172 97.8603 72.0875 94.7603 71.9185ZM117.16 54.9319C107.96 53.5797 98.8603 54.7629 89.8603 58.1433C85.9603 57.6362 81.9603 57.2982 77.9603 57.0447C86.9603 52.143 97.7603 49.9458 107.96 51.0444C111.16 52.143 114.26 53.4107 117.16 54.9319ZM105.96 72.0875C98.1603 69.2987 91.3603 64.9041 86.1603 59.1574C88.3603 59.3264 90.4603 59.58 92.5603 59.8335C95.6603 60.2561 98.6603 60.6786 101.76 61.2702C105.96 65.9183 111.26 69.5522 117.46 71.9185C115.66 71.9185 113.96 71.9185 112.16 72.003C110.16 72.0875 108.06 72.0875 105.96 72.0875ZM119.26 72.003C112.86 69.8057 107.26 66.1718 102.86 61.5237C103.66 61.6927 104.36 61.7772 105.06 61.9463V62.0308C105.16 62.0308 105.16 62.0308 105.26 61.9463C108.46 62.6223 111.76 63.3829 114.86 64.3126C122.16 66.3408 129.16 68.9607 135.76 72.2566L135.86 72.0875C135.96 72.2566 136.06 72.4256 136.16 72.5946C130.76 72.0875 124.96 71.9185 119.26 72.003ZM127.66 62.1998C130.86 64.9886 133.56 68.2 135.76 71.5805C129.36 68.2846 122.46 65.5802 115.36 63.4674C112.86 62.7068 110.36 62.0308 107.76 61.4392C114.36 60.1715 121.36 60.4251 127.66 62.1998ZM126.76 61.4392C120.26 59.749 113.26 59.6645 106.56 61.1857C102.06 60.1715 97.5603 59.3264 92.9603 58.6504C92.3603 58.5658 91.7603 58.4813 91.1603 58.3968C99.8603 55.2699 109.46 54.3403 118.56 55.777C121.46 57.3827 124.26 59.2419 126.76 61.4392ZM101.76 49.5232C102.86 49.7767 104.06 50.0303 105.16 50.2838C95.3603 49.8613 85.2603 52.2276 76.8603 57.0447C74.4603 56.9601 72.0603 56.8756 69.6603 56.8756C68.2603 56.8756 66.8603 56.8756 65.3603 56.9601C72.5603 52.9881 81.8603 50.0303 89.8603 48.9316C94.3603 48.6781 98.5603 48.8471 101.76 49.5232ZM84.2603 49.3542C77.1603 50.7064 70.2603 53.3262 64.0603 56.9601C62.4603 57.0447 60.9603 57.1292 59.3603 57.2137C63.3603 53.4952 73.9603 50.5373 84.2603 49.3542Z" fill="white"/>
</svg>
