<svg width="195" height="122" viewBox="0 0 195 122" fill="none" xmlns="http://www.w3.org/2000/svg">
<path d="M106.3 50.634C104.1 50.8875 101.9 51.2255 99.7 51.6481C91.3 46.1549 64.8 49.1973 54.6 54.0989C40.9 60.7752 31.3 72.6912 28.7 86.1284L28.5 86.9735L29.4 86.6355C37 83.6776 45.2 81.7339 53.2 79.7901C58.7 78.4379 64.5 77.0858 70 75.3956C75.7 73.6208 80.6 71.6771 85 69.3108C86.1 68.7192 87.1 68.1277 88.2 67.5361C92.1 65.1698 98.1 59.3385 100.2 53.4228C103.6 52.9157 107 52.4932 110.4 52.1551C125.1 58.3244 139.3 65.3388 153 73.1138C150.3 73.2828 147.6 73.6208 144.9 73.9589C135.7 67.7896 107.4 69.2263 96 73.7899C80.5 80.0436 68.8 92.2977 64.7 106.58L64.4 107.51L65.4 107.172C73.9 104.552 83.1 102.946 91.9 101.509C98.1 100.495 104.4 99.3966 110.6 97.9599C117 96.4387 122.5 94.664 127.5 92.4667C128.7 91.8751 129.9 91.3681 131.1 90.7765C135.6 88.4947 142.9 82.4099 145.7 76.0716C149.3 75.7336 152.9 75.4801 156.5 75.311C160.8 77.8464 165.1 80.4662 169.3 83.1705C175.4 87.1425 181.4 91.199 187.3 95.5091C188.9 96.6077 190.4 97.7909 191.9 98.974C188.5 99.143 185.1 99.4811 181.8 99.9036C172 93.3118 141.7 94.9175 129.6 99.7346C113 106.411 100.6 119.426 96.2 134.722L95.9 135.652L97 135.314C101.5 133.961 106.1 132.863 110.8 131.849C114.2 131.173 117.6 130.581 121 129.989L121.1 130.158C121.3 130.074 121.4 129.989 121.6 129.905C122.8 129.651 124.1 129.482 125.3 129.313C131.9 128.215 138.7 127.032 145.2 125.51C152 123.905 157.9 121.961 163.2 119.679C164.5 119.088 165.8 118.496 167.1 117.82C171.9 115.369 179.7 108.946 182.7 102.101C186.7 101.678 190.8 101.425 194.9 101.256C198.1 103.707 201.2 106.242 204.3 108.777C209 112.665 213.6 116.721 218.1 120.862C219 120.102 219.9 119.341 220.9 118.665C218.8 116.806 216.7 114.947 214.6 113.087C215.1 109.96 215.3 106.749 215.4 103.538C222.4 98.8895 225.6 82.0719 224.6 70.7475C224.7 70.4939 224.8 70.1559 224.9 69.9024L224.5 69.7333C224.3 68.0431 224 66.4374 223.6 65.0853C220.3 54.1834 212.5 44.0421 202.2 36.6052V36.5207H202.1C199.2 34.4924 196.1 32.6332 192.9 31.0275L192 30.6049L192.2 31.5346C193.7 39.056 193.9 46.6619 194.1 54.0989C194.2 59.254 194.4 64.5782 194.9 69.8178C195.6 76.6632 197.1 82.579 199.4 88.0721C201.2 92.2977 206.6 99.7346 213.1 103.791C212.9 106.326 212.7 108.777 212.3 111.228C200.1 100.833 187 91.199 173.3 82.3254H173.4C173 78.8605 172.4 75.3956 171.6 72.0151C177.7 65.3388 174.7 43.366 169.2 34.3234C161.7 21.9003 147.9 12.0971 132.4 7.9561L131.4 7.70255L131.8 8.54766C134.7 14.6324 136.8 20.9707 138.6 27.2245C138.6 27.2245 138.6 27.2245 138.6 27.309C138.8 27.9851 139 28.7457 139.2 29.4218C140.6 34.2389 142.1 39.225 144 44.0421C146.4 50.2959 149.3 55.7046 152.8 60.3527C155.5 63.9866 162.4 70.0714 169.4 72.6067C170 75.3111 170.4 78.0154 170.7 80.7197C159.7 73.7898 148.3 67.4515 136.5 61.7048C134.7 57.9864 132.7 54.3524 130.3 50.8875C132.7 42.4364 121.8 22.7454 113.5 15.6465C107.9 10.9139 101.2 7.11098 94 4.49116C89 2.63192 83.8 1.36426 78.6 0.772681H78.5C75.5 0.434638 72.4 0.265625 69.4 0.265625H68.4L69.1 0.9417C74.7 6.60391 79.4 12.9422 84 19.1115C87.2 23.4215 90.5 27.8161 94 31.9571C98.6 37.3658 103.4 41.7603 108.4 45.3098C112.4 48.1831 121.4 52.3242 129 52.6622C130.5 55.113 131.9 57.6483 133.2 60.1836C126.1 56.8032 118.9 53.5918 111.7 50.634V50.4649C111.6 50.4649 111.5 50.4649 111.3 50.4649C104.4 47.6761 97.5 45.0563 90.4 42.6054C89.1 42.1829 87.8 41.6758 86.5 41.2533C83.5 32.6332 58.3 21.1398 45.9 19.7876C29.4 17.9283 12.5 22.3229 0.700012 31.45L0 32.0416L1 32.2106C9.6 33.8163 18.1 36.5207 26.3 39.1405C32 40.9152 37.9 42.859 43.9 44.2957C51.6 46.2394 58.5 47.2535 65.1 47.4225C69.5 47.507 77.1 46.4929 83.1 43.8731C83.8 43.6196 84.4 43.2815 85 42.9435C86.5 43.4505 88.1 44.0421 89.6 44.5492C95.1 46.2394 100.7 48.3522 106.3 50.634ZM48.6 44.1266C55.7 44.1266 62.8 42.69 68.9 39.9856C70 39.4785 71.1 38.9715 72.1 38.3799C76 39.5631 79.9 40.8307 83.7 42.0984C77.8 45.0562 69.6 46.3239 65 46.1549C59.8 46.0704 54.4 45.3943 48.6 44.1266ZM31.6 39.5631C38.5 39.5631 45.3 38.2109 51.2 35.591C52.3 35.084 53.3 34.5769 54.4 33.9854C59 34.915 63.6 36.0136 68.2 37.2813C69.2 37.5348 70.2 37.8728 71.2 38.1264C64.1 41.9293 55.6 43.7886 46.9 43.4506V43.7041C46 43.5351 45.1 43.2815 44.1 43.028C39.9 42.0984 35.7 40.8307 31.6 39.5631ZM18.4 35.422C22.2 35.1685 25.9 34.2389 29.2 32.7177C30.4 32.2106 31.6 31.5345 32.7 30.8585C37.2 31.1965 41.7 31.7036 46.2 32.4642C48.6 32.8022 50.9 33.3093 53.3 33.7318C46.4 37.3658 38.2 39.1405 29.9 38.887V39.056C28.8 38.7179 27.7 38.3799 26.6 38.0419C23.9 37.1122 21.1 36.1826 18.4 35.422ZM3.20001 31.45C6.30001 31.112 9.50004 30.8585 12.6 30.6894C16.3 30.5204 20.1 30.4359 23.8 30.5204C26.3 30.5204 28.9 30.6894 31.4 30.8585C27.1 33.3093 21.8 34.746 16.5 34.915C12.1 33.5628 7.70001 32.3797 3.20001 31.45ZM2.20001 31.1965C7.20001 27.478 13.1 24.6047 19.4 22.6609C28 22.9145 36.5 25.6188 43.3 30.4359C40 30.0979 36.7 29.8443 33.4 29.6753L33.3 29.5908L33.2 29.6753C30 29.5063 26.9 29.4218 23.8 29.5063C16.8 29.5908 9.8 30.2669 3 31.3655C2.6 31.3655 2.40001 31.281 2.20001 31.1965ZM39.5 19.9566C47.8 23.0835 55.3 27.7316 61.3 33.5628C56.4 32.4642 51.4 31.5345 46.4 30.8585C45.8 30.7739 45.3 30.6894 44.7 30.6894C38.1 25.7878 29.8 22.7454 21.3 22.1539C27.1 20.6327 33.3 19.8721 39.5 19.9566ZM55.7 22.5764L55.6 22.6609C63.6 26.6329 71.1 31.8726 77.3 37.8728C74.5 37.0277 71.6 36.1826 68.7 35.3375C66.6 34.746 64.5 34.2389 62.5 33.8163C56.7 27.9851 49.5 23.2525 41.4 19.9566C42.9 20.0411 44.3 20.1256 45.8 20.2946C48.7 20.6327 52.1 21.4778 55.7 22.5764ZM85.2 40.4082C83 39.6476 80.9 38.9715 78.7 38.2954C73.1 32.7177 66.4 27.7316 59.2 23.7596C70.6 28.0696 82.7 35.084 85.2 40.4082ZM198.2 81.8184C201.4 87.4806 206.7 92.3822 213.1 95.6781C213.1 97.9599 213.1 100.242 213 102.439C206.9 98.467 201.9 91.4526 200.2 87.4806C199.5 85.7058 198.8 83.7621 198.2 81.8184ZM196 71.2545C199.3 77.1703 205.3 82.0719 212.4 84.6917C212.7 87.3961 213 90.1004 213.1 92.8047C213.1 93.4808 213.1 94.1569 213.1 94.9175C206.2 91.3681 200.7 85.7904 197.8 79.4521L197.6 79.5366C196.9 76.9167 196.4 74.2124 196 71.2545ZM223.6 71.001C221.5 76.4942 218.4 81.5648 214.5 86.1284C214.2 84.1847 213.9 82.2409 213.6 80.2972C217.2 73.5363 219.3 66.0994 219.9 58.4934C221 60.6907 221.8 62.888 222.5 65.1698C223.1 66.7755 223.4 68.8037 223.6 71.001ZM204.6 51.2255C204.5 51.0565 204.5 50.972 204.4 50.803C201.5 44.3802 197.9 38.1264 193.6 32.2106C196.4 33.6473 199.1 35.3375 201.6 37.1967C203.5 41.8448 204.4 46.4929 204.6 51.2255ZM212.3 84.0156C204.8 81.1423 198.6 75.7336 195.7 69.1418C195.4 66.2684 195.2 63.395 195.1 60.5217C198.5 66.1839 204 71.001 210.6 74.0434C211.4 77.3393 211.9 80.6352 212.3 84.0156ZM210.1 66.0149C212.5 59.8456 213.1 53.1693 212 46.5774C214.9 49.8733 217.3 53.3383 219.2 57.0567C218.8 64.6627 216.8 72.0996 213.3 78.945C212.8 76.4942 212.3 73.9589 211.6 71.5081C211.2 69.7333 210.7 67.8741 210.1 66.0149ZM195 53.8453C195 52.6622 194.9 51.3946 194.9 50.2114C197.5 54.5214 201.8 58.1554 206.9 60.1836C208.2 63.9866 209.3 67.8741 210.2 71.7616C210.3 72.2687 210.4 72.7757 210.5 73.1983C203.9 69.9869 198.4 64.9163 195.2 59.085H195.1C195.1 57.3948 195 55.6201 195 53.8453ZM193.4 32.9712C197.4 38.8025 200.7 44.8872 203.3 51.141C204.5 53.8453 205.5 56.6342 206.5 59.3385C201.3 57.1413 197 53.1693 194.8 48.5212C194.7 43.366 194.3 38.1264 193.4 32.9712ZM202.8 38.0419C205.8 40.3236 208.6 42.859 211.1 45.5633C212.4 52.0706 211.9 58.6625 209.8 64.8317C208.5 60.8597 207.1 56.8877 205.4 53.0848C205.4 48.0141 204.6 42.9435 202.8 38.0419ZM215.4 102.101C215.5 99.0585 215.4 95.9316 215.2 92.8047C215.1 90.861 214.9 89.0018 214.6 87.058C218.4 82.6635 221.5 77.8464 223.7 72.6912C224.2 83.5931 220.8 97.5373 215.4 102.101ZM161.1 119.257C167.3 115.031 172.1 109.369 174.8 102.946C177 102.608 179.2 102.354 181.3 102.101C178.3 108.524 171 114.439 166.4 116.806C164.7 117.651 162.9 118.496 161.1 119.257ZM144.8 124.412C143.4 124.75 142.1 125.003 140.7 125.341C149.8 120.862 156.9 113.932 161 105.65C163.6 105.059 166.3 104.467 168.9 103.96C170.5 103.622 172.2 103.369 173.8 103.115C170.7 110.383 164.8 116.637 157.2 120.778C153.4 122.13 149.3 123.313 144.8 124.412ZM124.7 128.215C133.2 123.651 140.2 117.397 145.3 109.96C148.7 108.862 152.2 107.848 155.8 106.918H155.9V106.834C157.3 106.495 158.7 106.157 160.1 105.819C155.7 114.355 148.1 121.369 138.4 125.679C138.3 125.764 138.1 125.764 138 125.848C133.7 126.694 129.3 127.454 125.1 128.13C124.9 128.215 124.8 128.215 124.7 128.215ZM136.6 111.397C126.9 109.707 116.7 111.144 108.6 115.2C111.2 112.327 114.2 109.791 117.4 107.425C127.6 103.284 141.6 102.354 152.7 105.819C149.1 106.918 145.5 108.017 142 109.284C140.2 110.045 138.4 110.721 136.6 111.397ZM113.3 130.243C118.3 126.947 122.4 122.637 125.2 117.735C130.9 115.116 136.8 112.749 142.9 110.721C143.3 110.552 143.7 110.467 144.1 110.298C138.8 117.82 131.4 124.158 122.4 128.553C119.4 129.144 116.3 129.651 113.3 130.243ZM98.7 133.708C104.8 128.891 111.5 124.75 118.6 121.031C120.3 120.102 122.1 119.257 123.9 118.411C120.9 123.313 116.6 127.539 111.3 130.665C107 131.511 102.8 132.525 98.7 133.708ZM107.3 116.721C115.3 112.158 125.6 110.467 135.4 111.904C129.4 114.355 123.5 117.059 117.9 120.102C110.7 124.074 103.8 128.553 97.7 133.623C99.6 127.539 102.9 121.792 107.3 116.721ZM130.1 100.58C131.2 100.157 132.4 99.7346 133.7 99.3966C144.2 98.1289 157.3 98.974 167.6 102.185C163 103.115 158.4 104.298 153.9 105.566C142.7 101.678 129.8 101.847 119.4 106.157C122.8 103.96 126.3 102.101 130.1 100.58ZM180 99.9881C176.2 100.495 172.5 101.087 168.9 101.847C159.1 98.4669 148.4 97.1993 138.2 98.2134C152.1 95.5091 172.1 95.7626 180 99.9881ZM148.7 51.8171C153.2 56.7187 159.7 60.4372 166.6 62.1274C166.6 62.1274 166.6 62.1274 166.6 62.2119C167.6 65.2543 168.4 68.2122 169.1 71.2545C162.5 68.6347 156.2 62.9725 153.6 59.5076C151.8 57.2258 150.2 54.606 148.7 51.8171ZM155 36.6897C148.8 35.253 143.2 31.7881 139.6 27.2245C137.8 21.3088 136 15.3085 133.3 9.56179C138.4 14.2944 143 19.4495 147 24.7737C150 28.6612 152.6 32.6332 155 36.6897ZM154 32.7177C153.4 26.2949 151.4 20.5482 147.5 14.886C149.9 16.2381 152.2 17.7593 154.4 19.4495C158.5 26.8865 160.5 34.915 160.1 42.859C160.1 42.7745 160 42.69 160 42.6054C159 40.7462 157.9 38.9715 156.8 37.1967V37.1123C156.8 37.1123 156.8 37.1123 156.7 37.1123C155.8 35.5911 154.9 34.0699 154 32.7177ZM143 38.0419C147.6 43.6196 154.5 48.0141 162 50.1269C163.7 53.8454 165.1 57.6483 166.4 61.4513C158.6 59.5076 151.6 54.944 147.3 49.0282C146.5 47.2535 145.7 45.4788 144.9 43.535C144.2 41.7603 143.6 39.9011 143 38.0419ZM155.8 20.4637C160 23.8441 163.7 27.8161 166.7 32.0416C168.9 40.1546 168.8 48.5212 166.6 56.3807C165.8 54.3524 164.9 52.3241 164 50.2959L164.1 49.9579C164 49.9579 163.9 49.8733 163.8 49.8733C162.9 47.9296 161.9 45.9859 160.9 44.0421C161.4 36.0981 159.6 27.9851 155.8 20.4637ZM140.1 28.9147C144 33.0557 149.5 36.1826 155.5 37.4503C156.6 39.3095 157.6 41.1688 158.6 43.028C159.7 45.1408 160.7 47.2535 161.7 49.3663C153.8 47.0845 146.7 42.1829 142.3 36.0136C141.6 33.6473 140.8 31.281 140.1 28.9147ZM146.1 14.0408C149.8 19.365 152.2 25.2808 153 31.281C151.4 28.9147 149.7 26.6329 147.9 24.3512C143.6 18.858 138.8 13.6183 133.3 8.88569C137.8 10.1534 142.1 11.9281 146.1 14.0408ZM171.2 70.5784C170.5 67.7051 169.6 64.7472 168.6 61.8739C168.1 60.4372 167.6 59.0005 167 57.4793C169.3 49.8733 169.7 41.7603 167.9 33.9008C168 34.0699 168.1 34.2389 168.2 34.4079C173.8 43.7041 175.9 63.8176 171.2 70.5784ZM116.9 95.171C123.1 90.3539 128.3 84.4382 131.9 78.0154C132.2 77.9309 132.5 77.9309 132.7 77.8464C136.5 77.1703 140.4 76.5787 144.3 76.1561C141.5 82.1564 134.6 87.7341 130.4 89.9314C126.4 91.9596 121.9 93.6498 116.9 95.171ZM110.2 97.0303C106.9 97.7909 103.5 98.467 100.2 99.0585C107.3 94.495 113 88.4947 116.8 81.5648C121.4 80.2126 126.2 79.114 131 78.1844C127.2 84.8607 121.7 90.9455 115.1 95.7626C113.4 96.1852 111.8 96.6077 110.2 97.0303ZM123.6 78.0154C119.5 79.0295 115.5 80.2126 111.5 81.5648C101 79.7056 90.9 80.2972 81.4 83.5086C84 81.3113 86.9 79.3676 90 77.6774C100.7 74.4659 112.7 74.635 123.6 78.0154ZM95.1 87.9031C87.4 87.4806 79.7 89.0018 73.1 92.1286C75.2 89.4243 77.6 86.889 80.2 84.5227C89.5 81.2268 100 80.3817 110.2 81.9029C109.3 82.2409 108.4 82.4944 107.6 82.8325C103.3 84.4382 99.2 86.1284 95.1 87.9031ZM85.9 101.509C91.7 97.8754 96.3 93.0583 99.5 87.4806C102.4 86.2974 105.4 85.1988 108.4 84.1847C110.8 83.3395 113.3 82.579 115.8 81.9029C111.9 88.9173 105.8 95.002 98.3 99.3966C96.1 99.8191 93.8 100.157 91.6 100.58C89.7 100.833 87.8 101.171 85.9 101.509ZM66.9 105.65C72.6 101.171 78.9 97.1993 85.6 93.7344C89.7 91.6216 93.9 89.6778 98.3 87.9031C95 93.4808 90.1 98.2979 84 101.847C78.2 102.861 72.5 104.045 66.9 105.65ZM72.3 93.1428C78.7 89.9314 86.2 88.3257 93.8 88.4947C90.8 89.9314 87.8 91.3681 84.9 92.9738C78.1 96.6922 71.7 100.833 66 105.65C67.4 101.256 69.6 97.0303 72.3 93.1428ZM108.8 71.7616C117.4 71.3391 128 72.6067 136.6 75.2265C135.1 75.4801 133.6 75.7336 132 76.0716C129.6 76.5787 127.1 77.0858 124.7 77.7618C114.4 74.3814 103.1 73.8744 92.8 76.2407C93.9 75.7336 95 75.2265 96.2 74.7195C99.6 73.3673 104 72.3532 108.8 71.7616ZM143.2 74.1279C141.5 74.3814 139.8 74.635 138.1 74.8885C130.7 72.4377 122.8 71.0855 115 71.0855C125.9 70.3249 137.6 71.2545 143.2 74.1279ZM94.8 31.0275C94.6 30.774 94.3 30.4359 94.1 30.1824C101.7 36.2671 111.6 40.4082 121.7 41.9293C122.3 42.6899 123 43.5351 123.6 44.2957C125.3 46.5774 127 48.9437 128.5 51.3945C121.3 50.8875 112.9 47 109 44.2957C104 40.7462 99.4 36.4362 94.8 31.0275ZM121.1 41.1688C111 39.4785 100 34.4924 92.4 28.1541C90.1 25.3653 87.9 22.4074 85.8 19.534C93.4 25.6188 102.8 29.9288 112.8 31.7881C115.7 34.8305 118.5 37.9574 121.1 41.1688ZM110.3 27.478C110 27.2245 109.7 26.8865 109.4 26.6329C105.5 23.0835 101.5 19.7876 97.2 16.5762C94.4 10.4069 88.7 4.91371 81.8 1.7023C86.1 2.4629 90.3 3.64604 94.3 5.16723C103.1 10.9985 108.8 19.027 110.3 27.478ZM71.1 1.36425C77.8 4.57566 84.2 8.46314 90.2 12.6887C93.2 14.8014 96.2 17.0832 99 19.365C91.5 17.3368 84.2 13.6183 76.8 7.9561C75.1 5.67431 73.2 3.47702 71.1 1.36425ZM70.9 0.688178C73.7 0.688178 76.5 0.857197 79.2 1.27975C86.5 4.0686 92.7 9.39278 95.9 15.5621C94.2 14.2944 92.5 13.1112 90.8 11.9281C84.6 7.78706 77.9 3.89958 70.9 0.688178ZM112 31.0275C101.4 28.9147 91.6 24.0131 84 17.1677C82.2 14.8015 80.5 12.4352 78.6 10.0689C85.8 15.224 92.9 18.6044 100.3 20.3791C103.1 22.6609 105.8 25.0272 108.4 27.478C109.6 28.5767 110.8 29.7598 112 31.0275ZM110.1 13.7028C115.8 20.2101 118.9 28.0696 118.8 35.9291C116.4 33.3093 113.9 30.7739 111.2 28.3231C110 20.1256 104.9 12.2661 97 6.18137C101.7 8.20962 106.2 10.7449 110.1 13.7028ZM122.6 28.3231L122.3 28.4076C124 33.3093 124.9 38.3799 125.1 43.4506C123.3 41.1688 121.4 38.9715 119.5 36.8587C119.9 29.2528 117.8 22.2384 112.7 15.9001L112.8 15.9846C116.2 18.7735 119.7 23.337 122.6 28.3231ZM129.5 49.3663C128.4 47.6761 127.2 46.0704 125.9 44.4647C125.8 39.7321 125.1 35.084 123.8 30.4359C127.6 37.4503 130.2 44.8872 129.5 49.3663ZM75.6 72.5222C80.8 67.7896 85 62.1274 87.8 55.9581C88.2 55.8736 88.7 55.7046 89.1 55.6201C92.3 54.8595 95.6 54.1834 98.9 53.5918C96.7 59.1695 91.1 64.5782 87.4 66.7755C84 68.9727 80 70.832 75.6 72.5222ZM60.5 77.0858C66.7 72.4377 71.4 66.6064 74.3 60.0146C78.4 58.5779 82.6 57.3103 86.9 56.2116C84 62.5499 79.5 68.3812 73.9 73.1983C72.5 73.7053 71.1 74.1279 69.6 74.635C66.6 75.4801 63.6 76.3252 60.5 77.0858ZM49.7 57.9018C59.1 54.3524 70.2 53.7608 80.5 56.2962C76.8 57.4793 73.1 58.747 69.5 60.1836C59.8 59.085 50.7 60.1837 42.3 63.7331C44.5 61.6203 47 59.6766 49.7 57.9018ZM52.9 78.945C51.2 79.3676 49.5 79.7901 47.8 80.2127C52.9 76.4097 56.8 71.5926 59.2 66.1839C61.9 64.9162 64.7 63.7331 67.5 62.5499C69.5 61.7893 71.4 61.0288 73.4 60.3527C70.4 67.1135 65.4 73.0293 58.8 77.5928C56.8 78.0154 54.8 78.5225 52.9 78.945ZM29.9 85.4523C29.9 85.2833 30 85.0298 30 84.8608L30.2 85.0298C35.4 80.2127 41.3 76.0716 47.5 72.3532C50.2 70.7475 53.1 69.2263 55.9 67.7896C56 67.7896 56 67.7896 56.1 67.7896V67.7051C56.8 67.367 57.4 67.029 58.1 66.691C55.5 72.1842 51.4 77.0012 46 80.7197C40.6 81.9874 35.1 83.5086 29.9 85.4523ZM34.8 73.3673C40.2 70.0714 46.7 68.1276 53.5 67.7896C51.3 68.9727 49.1 70.2404 46.9 71.5926C40.8 75.3956 35.2 79.5366 30.2 84.3537C31.1 80.4662 32.7 76.7477 34.8 73.3673ZM41.2 64.8317C49.4 61.2823 58.9 59.8456 68.3 60.6907C67.8 60.9442 67.2 61.1133 66.7 61.3668C62.5 63.1415 58.5 65.0853 54.5 67.1135C47.6 67.2825 40.9 69.0573 35.3 72.2687C37 69.6488 39 67.198 41.2 64.8317ZM66.3 51.3945C74.3 50.4649 84.3 51.0565 92.5 53.0848C91.1 53.4228 89.8 53.7608 88.4 54.0989C86.1 54.6904 83.8 55.3665 81.6 56.0426C71.9 53.5073 61.4 53.6763 52.2 56.4652C53.2 55.8736 54.2 55.3665 55.2 54.8595C58 53.4228 61.9 52.2397 66.3 51.3945ZM98.3 51.8171C96.8 52.0706 95.3 52.4087 93.8 52.7467C86.7 50.803 79.2 49.9579 71.9 50.3804C82.1 49.0282 93.2 49.1973 98.3 51.8171Z" fill="#B3A9DF"/>
</svg>
